<svg width="157" height="75" viewBox="0 0 157 75" fill="none" xmlns="http://www.w3.org/2000/svg">
<path d="M106.086 24.8481L103.018 40.2736H98.7747L99.0615 38.754C97.7808 39.92 96.2038 40.503 94.3306 40.503C93.1264 40.503 92.0177 40.2258 91.0047 39.6715C89.9916 39.1171 89.1792 38.3239 88.5675 37.2917C87.975 36.2404 87.6787 35.0075 87.6787 33.593C87.6787 31.8918 88.0514 30.3627 88.7969 29.0055C89.5615 27.6293 90.5937 26.5589 91.8935 25.7943C93.1933 25.0106 94.6269 24.6187 96.1943 24.6187C98.5645 24.6187 100.237 25.3929 101.212 26.9411L101.613 24.8481H106.086ZM95.7068 36.8043C96.5861 36.8043 97.3698 36.594 98.0579 36.1735C98.7461 35.7339 99.2813 35.1318 99.6636 34.3672C100.046 33.6026 100.237 32.7233 100.237 31.7294C100.237 30.6781 99.9216 29.8466 99.2908 29.2349C98.6792 28.6232 97.819 28.3174 96.7104 28.3174C95.8311 28.3174 95.0474 28.5372 94.3593 28.9768C93.6711 29.3974 93.1359 29.9899 92.7536 30.7545C92.3713 31.5191 92.1802 32.3984 92.1802 33.3923C92.1802 34.4436 92.486 35.2751 93.0977 35.8868C93.7285 36.4984 94.5982 36.8043 95.7068 36.8043Z" fill="url(#paint0_linear)"/>
<path d="M111.632 40.503C110.294 40.503 109.023 40.3596 107.819 40.0729C106.634 39.767 105.707 39.3752 105.038 38.8973L106.758 35.6574C107.427 36.097 108.239 36.4507 109.195 36.7183C110.17 36.9859 111.145 37.1197 112.119 37.1197C113.133 37.1197 113.888 36.9954 114.385 36.7469C114.882 36.4793 115.13 36.1066 115.13 35.6287C115.13 35.2464 114.91 34.9693 114.471 34.7972C114.031 34.6252 113.324 34.4436 112.349 34.2525C111.24 34.0422 110.323 33.8128 109.596 33.5644C108.889 33.3159 108.268 32.9145 107.733 32.3601C107.217 31.7867 106.959 31.0126 106.959 30.0377C106.959 28.3365 107.666 27.008 109.08 26.0523C110.514 25.0966 112.387 24.6187 114.7 24.6187C115.77 24.6187 116.812 24.7334 117.825 24.9628C118.838 25.1922 119.698 25.5075 120.406 25.909L118.8 29.1776C117.538 28.3939 116.019 28.002 114.241 28.002C113.266 28.002 112.521 28.1454 112.005 28.4321C111.508 28.7188 111.259 29.082 111.259 29.5216C111.259 29.923 111.479 30.2193 111.919 30.4104C112.358 30.5825 113.094 30.7736 114.127 30.9839C115.216 31.1941 116.105 31.4235 116.793 31.672C117.5 31.9014 118.112 32.2932 118.628 32.8476C119.144 33.4019 119.402 34.1569 119.402 35.1126C119.402 36.833 118.676 38.1614 117.223 39.098C115.79 40.0346 113.926 40.503 111.632 40.503Z" fill="url(#paint1_linear)"/>
<path d="M131.595 31.5573L136.899 40.2736H131.71L128.04 34.2812L125.316 36.5462L124.57 40.2736H120.097L124.341 18.999H128.814L126.434 30.8979L133.831 24.8481H139.652L131.595 31.5573Z" fill="url(#paint2_linear)"/>
<path d="M81.0842 15.9024V8.73438C81.0842 5.56737 83.6516 3 86.8186 3H148.463C151.63 3 154.198 5.56737 154.198 8.73438V48.8751C154.198 52.0421 151.63 54.6094 148.463 54.6094H138.428L141.782 70.2603C142.075 71.6282 140.436 72.563 139.408 71.6141L124.092 57.4766H86.8186C83.6516 57.4766 81.0842 54.9093 81.0842 51.7422V48.8751" stroke="url(#paint3_linear)" stroke-width="4.30079"/>
<defs>
<linearGradient id="paint0_linear" x1="87.6787" y1="18.999" x2="99.7578" y2="53.1106" gradientUnits="userSpaceOnUse">
<stop stop-color="#485BFF"/>
<stop offset="1" stop-color="#FF59F8"/>
</linearGradient>
<linearGradient id="paint1_linear" x1="87.6787" y1="18.999" x2="99.7578" y2="53.1106" gradientUnits="userSpaceOnUse">
<stop stop-color="#485BFF"/>
<stop offset="1" stop-color="#FF59F8"/>
</linearGradient>
<linearGradient id="paint2_linear" x1="87.6787" y1="18.999" x2="99.7578" y2="53.1106" gradientUnits="userSpaceOnUse">
<stop stop-color="#485BFF"/>
<stop offset="1" stop-color="#FF59F8"/>
</linearGradient>
<linearGradient id="paint3_linear" x1="81.0842" y1="3" x2="141.295" y2="77.547" gradientUnits="userSpaceOnUse">
<stop stop-color="#485BFF"/>
<stop offset="1" stop-color="#FF59F8"/>
</linearGradient>
</defs>
</svg>

